<?xml version='1.0' encoding='ASCII'?>
<svg xmlns="http://www.w3.org/2000/svg" width="6756" height="1523" preserveAspectRatio="xMinYMin slice" viewBox="-100 -555 6756 1523" version="1.1">
  <path d="M16,-223 l-8,13 l90,61 l11,-18 l-93,-56 Z" fill="#1F2328" transform="matrix(1,0,0,-1,351,343)"/>
  <path d="M446,-10 q-70,0 -103,10 h-343 q20,12 41,28 q21,16 40,34 q19,18 32,35 q12,-7 35,-12.5 q23,-5.5 49.5,-8.5 q26.5,-3 52,-4.5 q25.5,-1.5 42.5,-1.5 q0,48 12.5,88.5 q12.5,40.5 34.5,71 q22,30.5 49.5,47.5 q27.5,17 57.5,17 q30,0 57.5,-17 q27.5,-17 49.5,-47.5 q22,-30.5 34.5,-71 q12.5,-40.5 12.5,-88.5 h40 v-70 h-91 q-33,-10 -103,-10 Z M445,114 q6,0 10.5,4.5 q4.5,4.5 4.5,10.5 q0,6 -4.5,10.5 q-4.5,4.5 -10.5,4.5 q-6,0 -10.5,-4.5 q-4.5,-4.5 -4.5,-10.5 q0,-6 4.5,-10.5 q4.5,-4.5 10.5,-4.5 Z" fill="#1F2328" transform="matrix(1,0,0,-1,-50,413)"/>
  <path d="M37.5,3.5 q-9,0 -16.75,4.75 q-7.75,4.75 -12.5,12.5 q-4.75,7.75 -4.75,16.75 q0,9.5 4.75,17 q4.75,7.5 12.5,12.25 q7.75,4.75 16.75,4.75 q9.5,0 17,-4.75 q7.5,-4.75 12.25,-12.25 q4.75,-7.5 4.75,-17 q0,-9 -4.75,-16.75 q-4.75,-7.75 -12.25,-12.5 q-7.5,-4.75 -17,-4.75 Z M126.5,3.5 q-9,0 -16.75,4.75 q-7.75,4.75 -12.5,12.5 q-4.75,7.75 -4.75,16.75 q0,9.5 4.75,17 q4.75,7.5 12.5,12.25 q7.75,4.75 16.75,4.75 q9.5,0 17,-4.75 q7.5,-4.75 12.25,-12.25 q4.75,-7.5 4.75,-17 q0,-9 -4.75,-16.75 q-4.75,-7.75 -12.25,-12.5 q-7.5,-4.75 -17,-4.75 Z" fill="#1F2328" transform="matrix(1,0,0,-1,528,530)"/>
  <path d="M-20,0 v70 h20 v40 q0,23 -1,46 q-1,23 -5,41.5 q-4,18.5 -13,29.5 q24,15 51.5,37.5 q27.5,22.5 47.5,47.5 v-202 q0,-8 2,-17.5 q2,-9.5 10.5,-16 q8.5,-6.5 27.5,-6.5 v-70 h-140 Z" fill="#1F2328" transform="matrix(1,0,0,-1,570,413)"/>
  <path d="M16,-223 l-8,13 l90,61 l11,-18 l-93,-56 Z" fill="#1F2328" transform="matrix(1,0,0,-1,735,333)"/>
  <path d="M-20,0 v70 h129 q-26,15 -52,34 q-26,19 -48,39 q17,17 33,34.5 q16,17.5 31,37.5 q51,-48 103.5,-77.5 q52.5,-29.5 106.5,-46 q54,-16.5 109.5,-23 q55.5,-6.5 110.5,-6.5 q-26,-16 -45.5,-33 q-19.5,-17 -33.5,-29 h-444 Z" fill="#1F2328" transform="matrix(1,0,0,-1,670,413)"/>
  <path d="M16,427 l-8,13 l90,61 l11,-18 l-93,-56 Z" fill="#1F2328" transform="matrix(1,0,0,-1,1207,492)"/>
  <path d="M31,437 l-9,71 l19,11 l6,-49 l16,9 l-7,48 l19,11 l6,-48 l16,9 l-6,49 l18,11 l10,-70 l-88,-52 Z" fill="#1F2328" transform="matrix(1,0,0,-1,1195,590)"/>
  <path d="M-26,-138 q36,1 60.5,17 q24.5,16 37,42.5 q12.5,26.5 12.5,56.5 q0,32 -15.5,63 q-15.5,31 -48.5,53 q21,18 38,42.5 q17,24.5 30,52.5 q17,-29 32.5,-55 q15.5,-26 24.5,-46 q2,-4 12.5,-11 q10.5,-7 31.5,-7 v-70 h-23 v-9 q0,-39 -17,-69 q-17,-30 -45,-48 q-28,-18 -62,-21.5 q-34,-3.5 -68,9.5 Z" fill="#1F2328" transform="matrix(1,0,0,-1,1193,413)"/>
  <path d="M-20,0 v80 h20 v302 q0,17 0,40.5 q0,23.5 -1.5,49 q-1.5,25.5 -4,48 q-2.5,22.5 -8.5,36.5 q23,18 49,46.5 q26,28.5 45,56.5 v-619 q0,-8 -2,-17.5 q-2,-9.5 -10.5,-16 q-8.5,-6.5 -27.5,-6.5 h-60 Z" fill="#1F2328" transform="matrix(1,0,0,-1,1362,413)"/>
  <path d="M230,-6 q-48,0 -90.5,14.5 q-42.5,14.5 -75,47 q-32.5,32.5 -50,84.5 q-17.5,52 -14.5,127 q2,43 3.5,82.5 q1.5,39.5 2.5,75 q1,35.5 1,66 q0,30.5 -1,57 q-1,26.5 -3.5,47.5 q-2.5,21 -6.5,37 q-4,16 -10,26 q17,13 35,31.5 q18,18.5 34.5,39.5 q16.5,21 29.5,41 q1,-104 -2,-193 q-3,-89 -6,-156.5 q-3,-67.5 -4,-108.5 q-1,-50 15.5,-89 q16.5,-39 46.5,-67 q30,-28 70.5,-44.5 q40.5,-16.5 86.5,-22 q46,-5.5 95,0 q49,5.5 96,22.5 q47,17 88,45 q-48,-53 -105.5,-89.5 q-57.5,-36.5 -118,-55 q-60.5,-18.5 -117.5,-18.5 Z" fill="#1F2328" transform="matrix(1,0,0,-1,1462,413)"/>
  <path d="" fill="#1F2328" transform="matrix(1,0,0,-1,2053,413)"/>
  <path d="M16,-223 l-8,13 l90,61 l11,-18 l-93,-56 Z" fill="#1F2328" transform="matrix(1,0,0,-1,2189,645)"/>
  <path d="M37.5,3.5 q-9,0 -16.75,4.75 q-7.75,4.75 -12.5,12.5 q-4.75,7.75 -4.75,16.75 q0,9.5 4.75,17 q4.75,7.5 12.5,12.25 q7.75,4.75 16.75,4.75 q9.5,0 17,-4.75 q7.5,-4.75 12.25,-12.25 q4.75,-7.5 4.75,-17 q0,-9 -4.75,-16.75 q-4.75,-7.75 -12.25,-12.5 q-7.5,-4.75 -17,-4.75 Z" fill="#1F2328" transform="matrix(1,0,0,-1,2267,535)"/>
  <path d="M95,-277 q-37,11 -72,30.5 q-35,19.5 -63.5,48 q-28.5,28.5 -47.5,65.5 q29,12 50.5,27.5 q21.5,15.5 37.5,31.5 q14,-42 44,-74.5 q30,-32.5 68.5,-52 q38.5,-19.5 80,-23 q41.5,-3.5 78.5,11.5 q8,37 9,75.5 q1,38.5 -8.5,76 q-9.5,37.5 -33,71.5 q-23.5,34 -65.5,63 q23,17 43.5,35.5 q20.5,18.5 39.5,43.5 q15,-13 26.5,-27.5 q11.5,-14.5 20.5,-28.5 q5,-6 13,-12.5 q8,-6.5 23.5,-10.5 q15.5,-4 43.5,-4 v-70 h-39 q9,-42 8.5,-82 q-0.5,-40 -9,-74.5 q-8.5,-34.5 -22,-60.5 q-13.5,-26 -29.5,-38 q-28,-22 -60.5,-30 q-32.5,-8 -67,-5 q-34.5,3 -69.5,13 Z" fill="#1F2328" transform="matrix(1,0,0,-1,2153,413)"/>
  <path d="M16,427 l-8,13 l90,61 l11,-18 l-93,-56 Z" fill="#1F2328" transform="matrix(1,0,0,-1,2611,499)"/>
  <path d="M154,-10 q-70,0 -103,10 h-51 v70 v6 q0,42 12,81 q12,39 33,70 q21,31 49,49 q28,18 60,18 q32,0 60,-18 q28,-18 49,-49 q21,-31 33,-70 q12,-39 12,-81 v-6 h40 v-70 h-91 q-33,-10 -103,-10 Z M153,114 q6,0 10.5,4.5 q4.5,4.5 4.5,10.5 q0,6 -4.5,10.5 q-4.5,4.5 -10.5,4.5 q-6,0 -10.5,-4.5 q-4.5,-4.5 -4.5,-10.5 q0,-6 4.5,-10.5 q4.5,-4.5 10.5,-4.5 Z" fill="#1F2328" transform="matrix(1,0,0,-1,2516,413)"/>
  <path d="M50,461 q-19,0 -32,13 q-13,13 -13,32 q0,18 13,31 q13,13 32,13 q18,0 31,-13 q13,-13 13,-31 q0,-19 -13,-32 q-13,-13 -31,-13 Z M50,478 q11,0 19,8.5 q8,8.5 8,19.5 q0,11 -8,19 q-8,8 -19,8 q-11,0 -19.5,-8 q-8.5,-8 -8.5,-19 q0,-11 8.5,-19.5 q8.5,-8.5 19.5,-8.5 Z" fill="#1F2328" transform="matrix(1,0,0,-1,3039,573)"/>
  <path d="M-20,0 v70 h129 q-26,15 -52,34 q-26,19 -48,39 q17,17 33,34.5 q16,17.5 31,37.5 q51,-48 103.5,-77.5 q52.5,-29.5 106.5,-46 q54,-16.5 109.5,-23 q55.5,-6.5 110.5,-6.5 q-26,-16 -45.5,-33 q-19.5,-17 -33.5,-29 h-444 Z" fill="#1F2328" transform="matrix(1,0,0,-1,2844,413)"/>
  <path d="M16,427 l-8,13 l90,61 l11,-18 l-93,-56 Z" fill="#1F2328" transform="matrix(1,0,0,-1,3381,492)"/>
  <path d="M31,437 l-9,71 l19,11 l6,-49 l16,9 l-7,48 l19,11 l6,-48 l16,9 l-6,49 l18,11 l10,-70 l-88,-52 Z" fill="#1F2328" transform="matrix(1,0,0,-1,3369,590)"/>
  <path d="M-26,-138 q36,1 60.5,17 q24.5,16 37,42.5 q12.5,26.5 12.5,56.5 q0,32 -15.5,63 q-15.5,31 -48.5,53 q21,18 38,42.5 q17,24.5 30,52.5 q17,-29 32.5,-55 q15.5,-26 24.5,-46 q2,-4 12.5,-11 q10.5,-7 31.5,-7 v-70 h-23 v-9 q0,-39 -17,-69 q-17,-30 -45,-48 q-28,-18 -62,-21.5 q-34,-3.5 -68,9.5 Z" fill="#1F2328" transform="matrix(1,0,0,-1,3367,413)"/>
  <path d="M-20,0 v80 h20 v302 q0,17 0,40.5 q0,23.5 -1.5,49 q-1.5,25.5 -4,48 q-2.5,22.5 -8.5,36.5 q23,18 49,46.5 q26,28.5 45,56.5 v-619 q0,-8 -2,-17.5 q-2,-9.5 -10.5,-16 q-8.5,-6.5 -27.5,-6.5 h-60 Z" fill="#1F2328" transform="matrix(1,0,0,-1,3536,413)"/>
  <path d="M230,-6 q-48,0 -90.5,14.5 q-42.5,14.5 -75,47 q-32.5,32.5 -50,84.5 q-17.5,52 -14.5,127 q2,43 3.5,82.5 q1.5,39.5 2.5,75 q1,35.5 1,66 q0,30.5 -1,57 q-1,26.5 -3.5,47.5 q-2.5,21 -6.5,37 q-4,16 -10,26 q17,13 35,31.5 q18,18.5 34.5,39.5 q16.5,21 29.5,41 q1,-104 -2,-193 q-3,-89 -6,-156.5 q-3,-67.5 -4,-108.5 q-1,-50 15.5,-89 q16.5,-39 46.5,-67 q30,-28 70.5,-44.5 q40.5,-16.5 86.5,-22 q46,-5.5 95,0 q49,5.5 96,22.5 q47,17 88,45 q-48,-53 -105.5,-89.5 q-57.5,-36.5 -118,-55 q-60.5,-18.5 -117.5,-18.5 Z" fill="#1F2328" transform="matrix(1,0,0,-1,3636,413)"/>
  <path d="" fill="#1F2328" transform="matrix(1,0,0,-1,4227,413)"/>
  <path d="M230,0 q-23,-1 -53,0 q-30,1 -61,6 q-31,5 -57,17.5 q-26,12.5 -42.5,35.5 q-16.5,23 -16.5,60 q0,37 16,67.5 q16,30.5 43.5,53.5 q27.5,23 61,38.5 q33.5,15.5 68.5,22.5 q-1,20 -5.5,38 q-4.5,18 -12.5,28 q24,15 51.5,37.5 q27.5,22.5 47.5,47.5 v-342 q0,-8 2,-17.5 q2,-9.5 10.5,-16 q8.5,-6.5 27.5,-6.5 v-70 h-80 Z M166,144 q6,0 10.5,4.5 q4.5,4.5 4.5,10.5 q0,6 -4.5,10.5 q-4.5,4.5 -10.5,4.5 q-6,0 -10.5,-4.5 q-4.5,-4.5 -4.5,-10.5 q0,-6 4.5,-10.5 q4.5,-4.5 10.5,-4.5 Z" fill="#1F2328" transform="matrix(1,0,0,-1,4327,413)"/>
  <path d="M16,427 l-8,13 l90,61 l11,-18 l-93,-56 Z" fill="#1F2328" transform="matrix(1,0,0,-1,4589,46)"/>
  <path d="M31,437 l-9,71 l19,11 l6,-49 l16,9 l-7,48 l19,11 l6,-48 l16,9 l-6,49 l18,11 l10,-70 l-88,-52 Z" fill="#1F2328" transform="matrix(1,0,0,-1,4577,144)"/>
  <path d="M-20,0 v80 h20 v305 q0,17 0,41.5 q0,24.5 -1.5,50 q-1.5,25.5 -5,47 q-3.5,21.5 -10.5,33.5 q24,17 50.5,46.5 q26.5,29.5 46.5,59.5 v-553 q0,-8 2,-17.5 q2,-9.5 10.5,-16 q8.5,-6.5 27.5,-6.5 v-70 h-140 Z" fill="#1F2328" transform="matrix(1,0,0,-1,4617,413)"/>
  <path d="M-20,0 v70 h20 v422 q0,17 0,40.5 q0,23.5 -1.5,49 q-1.5,25.5 -4,48 q-2.5,22.5 -8.5,36.5 q23,18 49,46.5 q26,28.5 45,56.5 v-729 q0,-8 -2,-17.5 q-2,-9.5 -10.5,-16 q-8.5,-6.5 -27.5,-6.5 h-60 Z" fill="#1F2328" transform="matrix(1,0,0,-1,4717,413)"/>
  <path d="M230,-6 q-48,0 -90.5,14.5 q-42.5,14.5 -75,47 q-32.5,32.5 -50,84.5 q-17.5,52 -14.5,127 q2,43 3.5,82.5 q1.5,39.5 2.5,75 q1,35.5 1,66 q0,30.5 -1,57 q-1,26.5 -3.5,47.5 q-2.5,21 -6.5,37 q-4,16 -10,26 q17,13 35,31.5 q18,18.5 34.5,39.5 q16.5,21 29.5,41 q1,-104 -2,-193 q-3,-89 -6,-156.5 q-3,-67.5 -4,-108.5 q-1,-50 15.5,-89 q16.5,-39 46.5,-67 q30,-28 70.5,-44.5 q40.5,-16.5 86.5,-22 q46,-5.5 95,0 q49,5.5 96,22.5 q47,17 88,45 q-48,-53 -105.5,-89.5 q-57.5,-36.5 -118,-55 q-60.5,-18.5 -117.5,-18.5 Z" fill="#1F2328" transform="matrix(1,0,0,-1,4817,413)"/>
  <path d="" fill="#1F2328" transform="matrix(1,0,0,-1,5408,413)"/>
  <path d="M16,-223 l-8,13 l90,61 l11,-18 l-93,-56 Z" fill="#1F2328" transform="matrix(1,0,0,-1,5909,343)"/>
  <path d="M446,-10 q-70,0 -103,10 h-343 q20,12 41,28 q21,16 40,34 q19,18 32,35 q12,-7 35,-12.5 q23,-5.5 49.5,-8.5 q26.5,-3 52,-4.5 q25.5,-1.5 42.5,-1.5 q0,48 12.5,88.5 q12.5,40.5 34.5,71 q22,30.5 49.5,47.5 q27.5,17 57.5,17 q30,0 57.5,-17 q27.5,-17 49.5,-47.5 q22,-30.5 34.5,-71 q12.5,-40.5 12.5,-88.5 h40 v-70 h-91 q-33,-10 -103,-10 Z M445,114 q6,0 10.5,4.5 q4.5,4.5 4.5,10.5 q0,6 -4.5,10.5 q-4.5,4.5 -10.5,4.5 q-6,0 -10.5,-4.5 q-4.5,-4.5 -4.5,-10.5 q0,-6 4.5,-10.5 q4.5,-4.5 10.5,-4.5 Z" fill="#1F2328" transform="matrix(1,0,0,-1,5508,413)"/>
  <path d="M50,461 q-19,0 -32,13 q-13,13 -13,32 q0,18 13,31 q13,13 32,13 q18,0 31,-13 q13,-13 13,-31 q0,-19 -13,-32 q-13,-13 -31,-13 Z M50,478 q11,0 19,8.5 q8,8.5 8,19.5 q0,11 -8,19 q-8,8 -19,8 q-11,0 -19.5,-8 q-8.5,-8 -8.5,-19 q0,-11 8.5,-19.5 q8.5,-8.5 19.5,-8.5 Z" fill="#1F2328" transform="matrix(1,0,0,-1,6204,543)"/>
  <path d="M-20,0 v70 h44 q-8,11 -17,27 q-9,16 -17,34 q25,24 42.5,53 q17.5,29 25.5,48 q8,-19 16.5,-36.5 q8.5,-17.5 17.5,-34.5 q26,24 44,53.5 q18,29.5 26,49.5 q4,-16 9,-32.5 q5,-16.5 11,-29.5 q29,34 46.5,63 q17.5,29 25.5,48 v-203 q0,-8 2,-17.5 q2,-9.5 10.5,-16 q8.5,-6.5 27.5,-6.5 v-70 h-314 Z" fill="#1F2328" transform="matrix(1,0,0,-1,6128,413)"/>
  <path d="M16,-223 l-8,13 l90,61 l11,-18 l-93,-56 Z" fill="#1F2328" transform="matrix(1,0,0,-1,6397,426)"/>
  <path d="M37.5,3.5 q-9,0 -16.75,4.75 q-7.75,4.75 -12.5,12.5 q-4.75,7.75 -4.75,16.75 q0,9.5 4.75,17 q4.75,7.5 12.5,12.25 q7.75,4.75 16.75,4.75 q9.5,0 17,-4.75 q7.5,-4.75 12.25,-12.25 q4.75,-7.5 4.75,-17 q0,-9 -4.75,-16.75 q-4.75,-7.75 -12.25,-12.5 q-7.5,-4.75 -17,-4.75 Z" fill="#1F2328" transform="matrix(1,0,0,-1,6404,530)"/>
  <path d="M-20,0 v70 h20 v110 q0,28 -0.5,56.5 q-0.5,28.5 -4,53 q-3.5,24.5 -14.5,37.5 q24,15 51.5,37.5 q27.5,22.5 47.5,47.5 v-372 q0,-8 -2,-17.5 q-2,-9.5 -10.5,-16 q-8.5,-6.5 -27.5,-6.5 h-60 Z" fill="#1F2328" transform="matrix(1,0,0,-1,6402,413)"/>
<style>
@media (prefers-color-scheme: dark) {
path[fill="#1F2328"] {
 fill: #D1D7E0;
 }
}
</style></svg>
