<?xml version='1.0' encoding='ASCII'?>
<svg xmlns="http://www.w3.org/2000/svg" width="7060" height="1425" preserveAspectRatio="xMinYMin slice" viewBox="-100 -455 7060 1425" version="1.1">
  <path d="M16,-223 l-8,13 l125,83 l11,-19 l-128,-77 Z" fill="#1F2328" transform="matrix(1,0,0,-1,321,345)"/>
  <path d="M0,0 q29,18 60.5,44.5 q31.5,26.5 52.5,52.5 q13,-8 35.5,-13 q22.5,-5 49.5,-8 q27,-3 52.5,-4.5 q25.5,-1.5 42.5,-1.5 h347 v-70 h-640 Z M446,-10 q-61,0 -94.5,8 q-33.5,8 -46.5,26.5 q-13,18.5 -13,51.5 q0,42 12,81 q12,39 33,70 q21,31 49,49 q28,18 60,18 q32,0 60,-18 q28,-18 49,-49 q21,-31 33,-70 q12,-39 12,-81 q0,-33 -13,-51.5 q-13,-18.5 -46,-26.5 q-33,-8 -95,-8 Z M445,114 q6,0 10.5,4.5 q4.5,4.5 4.5,10.5 q0,6 -4.5,10.5 q-4.5,4.5 -10.5,4.5 q-6,0 -10.5,-4.5 q-4.5,-4.5 -4.5,-10.5 q0,-6 4.5,-10.5 q4.5,-4.5 10.5,-4.5 Z" fill="#1F2328" transform="matrix(1,0,0,-1,-50,415)"/>
  <path d="M37.5,3.5 q-9,0 -16.75,4.75 q-7.75,4.75 -12.5,12.5 q-4.75,7.75 -4.75,16.75 q0,9.5 4.75,17 q4.75,7.5 12.5,12.25 q7.75,4.75 16.75,4.75 q9.5,0 17,-4.75 q7.5,-4.75 12.25,-12.25 q4.75,-7.5 4.75,-17 q0,-9 -4.75,-16.75 q-4.75,-7.75 -12.25,-12.5 q-7.5,-4.75 -17,-4.75 Z M126.5,3.5 q-9,0 -16.75,4.75 q-7.75,4.75 -12.5,12.5 q-4.75,7.75 -4.75,16.75 q0,9.5 4.75,17 q4.75,7.5 12.5,12.25 q7.75,4.75 16.75,4.75 q9.5,0 17,-4.75 q7.5,-4.75 12.25,-12.25 q4.75,-7.5 4.75,-17 q0,-9 -4.75,-16.75 q-4.75,-7.75 -12.25,-12.5 q-7.5,-4.75 -17,-4.75 Z" fill="#1F2328" transform="matrix(1,0,0,-1,528,532)"/>
  <path d="M40,0 q-19,0 -27.5,6.5 q-8.5,6.5 -10.5,16 q-2,9.5 -2,17.5 v40 q0,28 -0.5,56.5 q-0.5,28.5 -4.5,53 q-4,24.5 -14,37.5 q24,15 51,38 q27,23 48,47 v-272 q0,-8 -2,-17.5 q-2,-9.5 -10.5,-16 q-8.5,-6.5 -27.5,-6.5 Z M-20,0 v70 h60 v-70 h-60 Z M0,0 v110 h80 q0,-8 2,-17.5 q2,-9.5 10.5,-16 q8.5,-6.5 27.5,-6.5 v-70 h-120 Z" fill="#1F2328" transform="matrix(1,0,0,-1,570,415)"/>
  <path d="M-20,0 v70 h125 l10,-14 q-29,15 -59.5,35 q-30.5,20 -55.5,43 q20,19 40,40.5 q20,21.5 38,46.5 q27,-23 58.5,-48 q31.5,-25 73.5,-47.5 q42,-22.5 100,-37.5 q58,-15 137,-18 q38,-1 68,-2 q30,-1 59,-1.5 q29,-0.5 67,-0.5 q-30,-17 -51,-35 q-21,-18 -36,-31 h-574 Z" fill="#1F2328" transform="matrix(1,0,0,-1,670,415)"/>
  <path d="M46,94 q21,18 37.5,42 q16.5,24 30.5,53 q23,-39 40.5,-69 q17.5,-30 27.5,-60.5 q10,-30.5 10,-68.5 q0,-39 -17,-69 q-17,-30 -45,-48 q-28,-18 -62,-21.5 q-34,-3.5 -68,9.5 q36,1 60.5,17 q24.5,16 37,42.5 q12.5,26.5 12.5,56.5 q0,32 -15.5,63 q-15.5,31 -48.5,53 Z M133,0 v98 h33 q2,-5 6.5,-11.5 q4.5,-6.5 14.5,-11.5 q10,-5 28,-5 v-70 h-82 Z" fill="#1F2328" transform="matrix(1,0,0,-1,1331,415)"/>
  <path d="M40,0 q-20,0 -28.5,6.5 q-8.5,6.5 -10,16 q-1.5,9.5 -1.5,17.5 v342 q0,16 0,40 q0,24 -1.5,49.5 q-1.5,25.5 -4.5,48 q-3,22.5 -8,36.5 q23,18 48.5,46.5 q25.5,28.5 45.5,57.5 v-620 q0,-8 -2,-17.5 q-2,-9.5 -10.5,-16 q-8.5,-6.5 -27.5,-6.5 Z M-20,0 v80 h60 v-80 h-60 Z" fill="#1F2328" transform="matrix(1,0,0,-1,1526,415)"/>
  <path d="M230,-6 q-48,0 -90.5,14.5 q-42.5,14.5 -75,47 q-32.5,32.5 -50,84.5 q-17.5,52 -14.5,127 q2,43 3.5,82.5 q1.5,39.5 2.5,75 q1,35.5 1,66 q0,30.5 -1,57 q-1,26.5 -3.5,47.5 q-2.5,21 -6.5,37 q-4,16 -10,26 q17,13 35,31.5 q18,18.5 34.5,39.5 q16.5,21 29.5,41 q1,-105 -2,-193.5 q-3,-88.5 -6,-156 q-3,-67.5 -4,-108.5 q-1,-50 15.5,-89 q16.5,-39 47,-67 q30.5,-28 70.5,-44.5 q40,-16.5 86.5,-22 q46.5,-5.5 95,0 q48.5,5.5 95.5,22.5 q47,17 88,45 q-48,-53 -106,-89 q-58,-36 -118.5,-55 q-60.5,-19 -116.5,-19 Z" fill="#1F2328" transform="matrix(1,0,0,-1,1626,415)"/>
  <path d="" fill="#1F2328" transform="matrix(1,0,0,-1,2217,415)"/>
  <path d="M16,-223 l-8,13 l125,83 l11,-19 l-128,-77 Z" fill="#1F2328" transform="matrix(1,0,0,-1,2323,647)"/>
  <path d="M37.5,3.5 q-9,0 -16.75,4.75 q-7.75,4.75 -12.5,12.5 q-4.75,7.75 -4.75,16.75 q0,9.5 4.75,17 q4.75,7.5 12.5,12.25 q7.75,4.75 16.75,4.75 q9.5,0 17,-4.75 q7.5,-4.75 12.25,-12.25 q4.75,-7.5 4.75,-17 q0,-9 -4.75,-16.75 q-4.75,-7.75 -12.25,-12.5 q-7.5,-4.75 -17,-4.75 Z" fill="#1F2328" transform="matrix(1,0,0,-1,2421,537)"/>
  <path d="M256,153 q37,-33 58,-72.5 q21,-39.5 30,-81 q9,-41.5 8,-81.5 q-1,-40 -9.5,-74.5 q-8.5,-34.5 -22,-60.5 q-13.5,-26 -28.5,-38 q-28,-22 -60.5,-30 q-32.5,-8 -67,-5 q-34.5,3 -69.5,13 q-37,11 -72,30.5 q-35,19.5 -64,48 q-29,28.5 -47,65.5 q29,12 50.5,27.5 q21.5,15.5 37.5,31.5 q15,-43 45.5,-76 q30.5,-33 70.5,-52 q40,-19 82,-21.5 q42,-2.5 80,14.5 l-22,-63 q12,41 19,87 q7,46 2,92.5 q-5,46.5 -29.5,89 q-24.5,42.5 -74.5,77.5 q23,16 43.5,35 q20.5,19 39.5,44 Z M271,0 v98 h32 q5,-7 12.5,-13.5 q7.5,-6.5 23.5,-10.5 q16,-4 44,-4 v-70 h-112 Z" fill="#1F2328" transform="matrix(1,0,0,-1,2317,415)"/>
  <path d="M0,70 h348 v-70 h-348 v70 Z M154,-10 q-61,0 -94.5,8 q-33.5,8 -46.5,26.5 q-13,18.5 -13,51.5 q0,42 12,81 q12,39 33,70 q21,31 49,49 q28,18 60,18 q32,0 60,-18 q28,-18 49,-49 q21,-31 33,-70 q12,-39 12,-81 q0,-33 -13,-51.5 q-13,-18.5 -46,-26.5 q-33,-8 -95,-8 Z M153,114 q6,0 10.5,4.5 q4.5,4.5 4.5,10.5 q0,6 -4.5,10.5 q-4.5,4.5 -10.5,4.5 q-6,0 -10.5,-4.5 q-4.5,-4.5 -4.5,-10.5 q0,-6 4.5,-10.5 q4.5,-4.5 10.5,-4.5 Z" fill="#1F2328" transform="matrix(1,0,0,-1,2680,415)"/>
  <path d="M-20,0 v70 h125 l10,-14 q-29,15 -59.5,35 q-30.5,20 -55.5,43 q20,19 40,40.5 q20,21.5 38,46.5 q27,-23 58.5,-48 q31.5,-25 73.5,-47.5 q42,-22.5 100,-37.5 q58,-15 137,-18 q38,-1 68,-2 q30,-1 59,-1.5 q29,-0.5 67,-0.5 q-30,-17 -51,-35 q-21,-18 -36,-31 h-574 Z" fill="#1F2328" transform="matrix(1,0,0,-1,3008,415)"/>
  <path d="M16,427 l-8,13 l125,83 l11,-19 l-128,-77 Z" fill="#1F2328" transform="matrix(1,0,0,-1,3705,588)"/>
  <path d="M46,94 q21,18 37.5,42 q16.5,24 30.5,53 q23,-39 40.5,-69 q17.5,-30 27.5,-60.5 q10,-30.5 10,-68.5 q0,-39 -17,-69 q-17,-30 -45,-48 q-28,-18 -62,-21.5 q-34,-3.5 -68,9.5 q36,1 60.5,17 q24.5,16 37,42.5 q12.5,26.5 12.5,56.5 q0,32 -15.5,63 q-15.5,31 -48.5,53 Z M133,0 v98 h33 q2,-5 6.5,-11.5 q4.5,-6.5 14.5,-11.5 q10,-5 28,-5 v-70 h-82 Z" fill="#1F2328" transform="matrix(1,0,0,-1,3669,415)"/>
  <path d="M40,0 q-20,0 -28.5,6.5 q-8.5,6.5 -10,16 q-1.5,9.5 -1.5,17.5 v342 q0,16 0,40 q0,24 -1.5,49.5 q-1.5,25.5 -4.5,48 q-3,22.5 -8,36.5 q23,18 48.5,46.5 q25.5,28.5 45.5,57.5 v-620 q0,-8 -2,-17.5 q-2,-9.5 -10.5,-16 q-8.5,-6.5 -27.5,-6.5 Z M-20,0 v80 h60 v-80 h-60 Z" fill="#1F2328" transform="matrix(1,0,0,-1,3864,415)"/>
  <path d="M230,-6 q-48,0 -90.5,14.5 q-42.5,14.5 -75,47 q-32.5,32.5 -50,84.5 q-17.5,52 -14.5,127 q2,43 3.5,82.5 q1.5,39.5 2.5,75 q1,35.5 1,66 q0,30.5 -1,57 q-1,26.5 -3.5,47.5 q-2.5,21 -6.5,37 q-4,16 -10,26 q17,13 35,31.5 q18,18.5 34.5,39.5 q16.5,21 29.5,41 q1,-105 -2,-193.5 q-3,-88.5 -6,-156 q-3,-67.5 -4,-108.5 q-1,-50 15.5,-89 q16.5,-39 47,-67 q30.5,-28 70.5,-44.5 q40,-16.5 86.5,-22 q46.5,-5.5 95,0 q48.5,5.5 95.5,22.5 q47,17 88,45 q-48,-53 -106,-89 q-58,-36 -118.5,-55 q-60.5,-19 -116.5,-19 Z" fill="#1F2328" transform="matrix(1,0,0,-1,3964,415)"/>
  <path d="" fill="#1F2328" transform="matrix(1,0,0,-1,4555,415)"/>
  <path d="M230,0 q-23,-1 -53,0 q-30,1 -61,6 q-31,5 -57,17.5 q-26,12.5 -42.5,35.5 q-16.5,23 -16.5,60 q0,42 20.5,75.5 q20.5,33.5 54,58 q33.5,24.5 73.5,38 q40,13.5 78,15.5 l-36,-86 q0,27 -0.5,56 q-0.5,29 -4.5,53.5 q-4,24.5 -14,37.5 q24,15 51,38 q27,23 48,47 v-412 q0,-8 -2,-17.5 q-2,-9.5 -10.5,-15.5 q-8.5,-6 -27.5,-7 Z M166,144 q6,0 10.5,4.5 q4.5,4.5 4.5,10.5 q0,6 -4.5,10.5 q-4.5,4.5 -10.5,4.5 q-6,0 -10.5,-4.5 q-4.5,-4.5 -4.5,-10.5 q0,-6 4.5,-10.5 q4.5,-4.5 10.5,-4.5 Z M190,0 v110 h80 q0,-8 2,-17.5 q2,-9.5 10.5,-16 q8.5,-6.5 27.5,-6.5 v-70 h-120 Z" fill="#1F2328" transform="matrix(1,0,0,-1,4655,415)"/>
  <path d="M40,0 q-20,0 -28.5,6.5 q-8.5,6.5 -10,16 q-1.5,9.5 -1.5,17.5 v345 q0,17 0,41.5 q0,24.5 -1.5,50 q-1.5,25.5 -5,47 q-3.5,21.5 -10.5,33.5 q24,17 50.5,46.5 q26.5,29.5 46.5,59.5 v-623 q0,-8 -2,-17.5 q-2,-9.5 -10.5,-16 q-8.5,-6.5 -27.5,-6.5 Z M-20,0 v80 h60 v-80 h-60 Z M0,0 v110 h80 q0,-8 2,-17.5 q2,-9.5 10.5,-16 q8.5,-6.5 27.5,-6.5 v-70 h-120 Z" fill="#1F2328" transform="matrix(1,0,0,-1,4945,415)"/>
  <path d="M40,0 q-20,0 -28.5,6.5 q-8.5,6.5 -10,16 q-1.5,9.5 -1.5,17.5 v452 q0,16 0,40 q0,24 -1.5,49.5 q-1.5,25.5 -4.5,48 q-3,22.5 -8,36.5 q23,18 48.5,46.5 q25.5,28.5 45.5,57.5 v-730 q0,-8 -2,-17.5 q-2,-9.5 -10.5,-16 q-8.5,-6.5 -27.5,-6.5 Z M-20,0 v70 h60 v-70 h-60 Z" fill="#1F2328" transform="matrix(1,0,0,-1,5045,415)"/>
  <path d="M230,-6 q-48,0 -90.5,14.5 q-42.5,14.5 -75,47 q-32.5,32.5 -50,84.5 q-17.5,52 -14.5,127 q2,43 3.5,82.5 q1.5,39.5 2.5,75 q1,35.5 1,66 q0,30.5 -1,57 q-1,26.5 -3.5,47.5 q-2.5,21 -6.5,37 q-4,16 -10,26 q17,13 35,31.5 q18,18.5 34.5,39.5 q16.5,21 29.5,41 q1,-105 -2,-193.5 q-3,-88.5 -6,-156 q-3,-67.5 -4,-108.5 q-1,-50 15.5,-89 q16.5,-39 47,-67 q30.5,-28 70.5,-44.5 q40,-16.5 86.5,-22 q46.5,-5.5 95,0 q48.5,5.5 95.5,22.5 q47,17 88,45 q-48,-53 -106,-89 q-58,-36 -118.5,-55 q-60.5,-19 -116.5,-19 Z" fill="#1F2328" transform="matrix(1,0,0,-1,5145,415)"/>
  <path d="" fill="#1F2328" transform="matrix(1,0,0,-1,5736,415)"/>
  <path d="M16,-223 l-8,13 l125,83 l11,-19 l-128,-77 Z" fill="#1F2328" transform="matrix(1,0,0,-1,6207,345)"/>
  <path d="M0,0 q29,18 60.5,44.5 q31.5,26.5 52.5,52.5 q13,-8 35.5,-13 q22.5,-5 49.5,-8 q27,-3 52.5,-4.5 q25.5,-1.5 42.5,-1.5 h347 v-70 h-640 Z M446,-10 q-61,0 -94.5,8 q-33.5,8 -46.5,26.5 q-13,18.5 -13,51.5 q0,42 12,81 q12,39 33,70 q21,31 49,49 q28,18 60,18 q32,0 60,-18 q28,-18 49,-49 q21,-31 33,-70 q12,-39 12,-81 q0,-33 -13,-51.5 q-13,-18.5 -46,-26.5 q-33,-8 -95,-8 Z M445,114 q6,0 10.5,4.5 q4.5,4.5 4.5,10.5 q0,6 -4.5,10.5 q-4.5,4.5 -10.5,4.5 q-6,0 -10.5,-4.5 q-4.5,-4.5 -4.5,-10.5 q0,-6 4.5,-10.5 q4.5,-4.5 10.5,-4.5 Z" fill="#1F2328" transform="matrix(1,0,0,-1,5836,415)"/>
  <path d="M58,232 q11,-27 23,-50.5 q12,-23.5 26,-46.5 l-24,18 q20,16 35.5,36.5 q15.5,20.5 26.5,40 q11,19.5 17,34.5 q5,-23 12.5,-44 q7.5,-21 17.5,-36 l-33,-8 q39,42 62,78 q23,36 33,59 v-255 l-21,12 h61 v-70 h-314 v70 h47 l1,-5 q-9,11 -19.5,29 q-10.5,18 -18.5,37 q25,24 42,52.5 q17,28.5 26,48.5 Z M174,0 v110 h80 q0,-8 2,-17.5 q2,-9.5 10.5,-16 q8.5,-6.5 27.5,-6.5 v-70 h-120 Z" fill="#1F2328" transform="matrix(1,0,0,-1,6456,415)"/>
  <path d="M37.5,3.5 q-9,0 -16.75,4.75 q-7.75,4.75 -12.5,12.5 q-4.75,7.75 -4.75,16.75 q0,9.5 4.75,17 q4.75,7.5 12.5,12.25 q7.75,4.75 16.75,4.75 q9.5,0 17,-4.75 q7.5,-4.75 12.25,-12.25 q4.75,-7.5 4.75,-17 q0,-9 -4.75,-16.75 q-4.75,-7.75 -12.25,-12.5 q-7.5,-4.75 -17,-4.75 Z" fill="#1F2328" transform="matrix(1,0,0,-1,6732,532)"/>
  <path d="M-20,0 v70 h60 v-70 h-60 Z M40,0 q-19,0 -27.5,6.5 q-8.5,6.5 -10.5,16 q-2,9.5 -2,17.5 v140 q0,27 -0.5,56 q-0.5,29 -4.5,53.5 q-4,24.5 -14,37.5 q24,15 51,38 q27,23 48,47 v-372 q0,-8 -2,-17.5 q-2,-9.5 -10.5,-16 q-8.5,-6.5 -27.5,-6.5 Z" fill="#1F2328" transform="matrix(1,0,0,-1,6730,415)"/>
<style>
@media (prefers-color-scheme: dark) {
path[fill="#1F2328"] {
 fill: #D1D7E0;
 }
}
</style></svg>
