<?xml version='1.0' encoding='ASCII'?>
<svg xmlns="http://www.w3.org/2000/svg" width="7018" height="1522" preserveAspectRatio="xMinYMin slice" viewBox="-100 -555 7018 1522" version="1.1">
  <path d="M16,-223 l-8,13 l90,61 l11,-18 l-93,-56 Z" fill="#1F2328" transform="matrix(1,0,0,-1,351,342)"/>
  <path d="M446,-10 q-70,0 -103,10 h-343 q29,18 61,45 q32,27 52,52 q17,-10 50.5,-16 q33.5,-6 69.5,-8.5 q36,-2.5 59,-2.5 q0,64 22,114.5 q22,50.5 57,80 q35,29.5 75,29.5 q40,0 75,-29.5 q35,-29.5 57,-80 q22,-50.5 22,-114.5 h40 v-70 h-91 q-33,-10 -103,-10 Z M445,114 q6,0 10.5,4.5 q4.5,4.5 4.5,10.5 q0,6 -4.5,10.5 q-4.5,4.5 -10.5,4.5 q-6,0 -10.5,-4.5 q-4.5,-4.5 -4.5,-10.5 q0,-6 4.5,-10.5 q4.5,-4.5 10.5,-4.5 Z" fill="#1F2328" transform="matrix(1,0,0,-1,-50,412)"/>
  <path d="M37.5,3.5 q-13.5,0 -23.75,10.25 q-10.25,10.25 -10.25,23.75 q0,14 10.25,24 q10.25,10 23.75,10 q14,0 24,-10 q10,-10 10,-24 q0,-13.5 -10,-23.75 q-10,-10.25 -24,-10.25 Z M126.5,3.5 q-13.5,0 -23.75,10.25 q-10.25,10.25 -10.25,23.75 q0,14 10.25,24 q10.25,10 23.75,10 q14,0 24,-10 q10,-10 10,-24 q0,-13.5 -10,-23.75 q-10,-10.25 -24,-10.25 Z" fill="#1F2328" transform="matrix(1,0,0,-1,528,529)"/>
  <path d="M-20,0 v70 h20 v40 q0,35 -3,68 q-3,33 -16,49 q24,15 51.5,37.5 q27.5,22.5 47.5,47.5 v-202 q0,-13 6,-26.5 q6,-13.5 34,-13.5 v-70 h-140 Z" fill="#1F2328" transform="matrix(1,0,0,-1,570,412)"/>
  <path d="M16,-223 l-8,13 l90,61 l11,-18 l-93,-56 Z" fill="#1F2328" transform="matrix(1,0,0,-1,716,332)"/>
  <path d="M-20,0 v70 h110 q-26,15 -52,34 q-26,19 -48,39 q17,17 33,34.5 q16,17.5 31,37.5 q68,-63 139,-96 q71,-33 144,-44.5 q73,-11.5 147,-12.5 q-26,-16 -45.5,-33 q-19.5,-17 -33.5,-29 h-425 Z" fill="#1F2328" transform="matrix(1,0,0,-1,670,412)"/>
  <path d="M16,427 l-8,13 l90,61 l11,-18 l-93,-56 Z" fill="#1F2328" transform="matrix(1,0,0,-1,1176,492)"/>
  <path d="M31,437 l-9,71 l19,11 l6,-49 l16,9 l-7,48 l19,11 l6,-48 l16,9 l-6,49 l18,11 l10,-70 l-88,-52 Z" fill="#1F2328" transform="matrix(1,0,0,-1,1176,589)"/>
  <path d="M-26,-138 q53,1 81.5,36 q28.5,35 28.5,80 q0,32 -15.5,63 q-15.5,31 -48.5,53 q21,18 38,42.5 q17,24.5 30,52.5 q17,-29 32.5,-55 q15.5,-26 24.5,-46 q2,-4 12.5,-11 q10.5,-7 31.5,-7 v-70 h-23 v-9 q0,-52 -29,-87 q-29,-35 -73.5,-47 q-44.5,-12 -89.5,5 Z" fill="#1F2328" transform="matrix(1,0,0,-1,1174,412)"/>
  <path d="M-20,0 v80 h20 v302 q0,22 -0.5,55.5 q-0.5,33.5 -3,66.5 q-2.5,33 -10.5,52 q23,18 49,46.5 q26,28.5 45,56.5 v-619 q0,-13 -5.5,-26.5 q-5.5,-13.5 -34.5,-13.5 h-60 Z" fill="#1F2328" transform="matrix(1,0,0,-1,1343,412)"/>
  <path d="M230,-6 q-48,0 -90.5,14.5 q-42.5,14.5 -75,47 q-32.5,32.5 -50,84.5 q-17.5,52 -14.5,127 q2,50 3.5,95.5 q1.5,45.5 2.5,85 q1,39.5 0.5,73 q-0.5,33.5 -2.5,60 q-2,26.5 -6.5,46 q-4.5,19.5 -11.5,31.5 q26,20 53,51 q27,31 46,61 q1,-157 -4.5,-277 q-5.5,-120 -7.5,-181 q-1,-58 21.5,-101.5 q22.5,-43.5 62,-71.5 q39.5,-28 91,-41 q51.5,-13 107.5,-11 q56,2 112,19.5 q56,17.5 104,50.5 q-48,-53 -105.5,-89.5 q-57.5,-36.5 -118,-55 q-60.5,-18.5 -117.5,-18.5 Z" fill="#1F2328" transform="matrix(1,0,0,-1,1443,412)"/>
  <path d="" fill="#1F2328" transform="matrix(1,0,0,-1,2034,412)"/>
  <path d="M16,-223 l-8,13 l90,61 l11,-18 l-93,-56 Z" fill="#1F2328" transform="matrix(1,0,0,-1,2270,644)"/>
  <path d="M37.5,3.5 q-13.5,0 -23.75,10.25 q-10.25,10.25 -10.25,23.75 q0,14 10.25,24 q10.25,10 23.75,10 q14,0 24,-10 q10,-10 10,-24 q0,-13.5 -10,-23.75 q-10,-10.25 -24,-10.25 Z" fill="#1F2328" transform="matrix(1,0,0,-1,2348,534)"/>
  <path d="M95,-277 q-55,17 -105,53 q-50,36 -78,91 q29,12 50.5,27.5 q21.5,15.5 37.5,31.5 q14,-42 44,-74.5 q30,-32.5 68.5,-52 q38.5,-19.5 80,-23 q41.5,-3.5 78.5,11.5 q10,50 8,101 q-2,51 -26,99 q-24,48 -80,86 q23,17 43.5,35.5 q20.5,18.5 39.5,43.5 q15,-13 26.5,-27.5 q11.5,-14.5 20.5,-28.5 q8,-10 23,-18.5 q15,-8.5 57,-8.5 v-70 h-39 q13,-55 7.5,-107.5 q-5.5,-52.5 -22,-91.5 q-16.5,-39 -37.5,-56 q-42,-34 -93.5,-36 q-51.5,-2 -103.5,14 Z" fill="#1F2328" transform="matrix(1,0,0,-1,2234,412)"/>
  <path d="M16,427 l-8,13 l90,61 l11,-18 l-93,-56 Z" fill="#1F2328" transform="matrix(1,0,0,-1,2680,499)"/>
  <path d="M154,-10 q-70,0 -103,10 h-51 v70 v6 q0,56 21,105.5 q21,49.5 56,81 q35,31.5 77,31.5 q43,0 77.5,-31.5 q34.5,-31.5 55.5,-81 q21,-49.5 21,-105.5 v-6 h40 v-70 h-91 q-33,-10 -103,-10 Z M153,114 q6,0 10.5,4.5 q4.5,4.5 4.5,10.5 q0,6 -4.5,10.5 q-4.5,4.5 -10.5,4.5 q-6,0 -10.5,-4.5 q-4.5,-4.5 -4.5,-10.5 q0,-6 4.5,-10.5 q4.5,-4.5 10.5,-4.5 Z" fill="#1F2328" transform="matrix(1,0,0,-1,2597,412)"/>
  <path d="M50,461 q-19,0 -32,13 q-13,13 -13,32 q0,18 13,31 q13,13 32,13 q18,0 31,-13 q13,-13 13,-31 q0,-19 -13,-32 q-13,-13 -31,-13 Z M50,478 q11,0 19,8.5 q8,8.5 8,19.5 q0,11 -8,19 q-8,8 -19,8 q-11,0 -19.5,-8 q-8.5,-8 -8.5,-19 q0,-11 8.5,-19.5 q8.5,-8.5 19.5,-8.5 Z" fill="#1F2328" transform="matrix(1,0,0,-1,3101,572)"/>
  <path d="M-20,0 v70 h110 q-26,15 -52,34 q-26,19 -48,39 q17,17 33,34.5 q16,17.5 31,37.5 q68,-63 139,-96 q71,-33 144,-44.5 q73,-11.5 147,-12.5 q-26,-16 -45.5,-33 q-19.5,-17 -33.5,-29 h-425 Z" fill="#1F2328" transform="matrix(1,0,0,-1,2925,412)"/>
  <path d="M16,427 l-8,13 l90,61 l11,-18 l-93,-56 Z" fill="#1F2328" transform="matrix(1,0,0,-1,3431,492)"/>
  <path d="M31,437 l-9,71 l19,11 l6,-49 l16,9 l-7,48 l19,11 l6,-48 l16,9 l-6,49 l18,11 l10,-70 l-88,-52 Z" fill="#1F2328" transform="matrix(1,0,0,-1,3431,589)"/>
  <path d="M-26,-138 q53,1 81.5,36 q28.5,35 28.5,80 q0,32 -15.5,63 q-15.5,31 -48.5,53 q21,18 38,42.5 q17,24.5 30,52.5 q17,-29 32.5,-55 q15.5,-26 24.5,-46 q2,-4 12.5,-11 q10.5,-7 31.5,-7 v-70 h-23 v-9 q0,-52 -29,-87 q-29,-35 -73.5,-47 q-44.5,-12 -89.5,5 Z" fill="#1F2328" transform="matrix(1,0,0,-1,3429,412)"/>
  <path d="M-20,0 v80 h20 v302 q0,22 -0.5,55.5 q-0.5,33.5 -3,66.5 q-2.5,33 -10.5,52 q23,18 49,46.5 q26,28.5 45,56.5 v-619 q0,-13 -5.5,-26.5 q-5.5,-13.5 -34.5,-13.5 h-60 Z" fill="#1F2328" transform="matrix(1,0,0,-1,3598,412)"/>
  <path d="M230,-6 q-48,0 -90.5,14.5 q-42.5,14.5 -75,47 q-32.5,32.5 -50,84.5 q-17.5,52 -14.5,127 q2,50 3.5,95.5 q1.5,45.5 2.5,85 q1,39.5 0.5,73 q-0.5,33.5 -2.5,60 q-2,26.5 -6.5,46 q-4.5,19.5 -11.5,31.5 q26,20 53,51 q27,31 46,61 q1,-157 -4.5,-277 q-5.5,-120 -7.5,-181 q-1,-58 21.5,-101.5 q22.5,-43.5 62,-71.5 q39.5,-28 91,-41 q51.5,-13 107.5,-11 q56,2 112,19.5 q56,17.5 104,50.5 q-48,-53 -105.5,-89.5 q-57.5,-36.5 -118,-55 q-60.5,-18.5 -117.5,-18.5 Z" fill="#1F2328" transform="matrix(1,0,0,-1,3698,412)"/>
  <path d="" fill="#1F2328" transform="matrix(1,0,0,-1,4289,412)"/>
  <path d="M230,0 q-28,-1 -67,0.5 q-39,1.5 -76.5,12 q-37.5,10.5 -62,35.5 q-24.5,25 -24.5,71 q0,49 28,86.5 q28,37.5 71.5,62 q43.5,24.5 89.5,33.5 q-1,20 -5.5,38 q-4.5,18 -12.5,28 q24,15 51.5,37.5 q27.5,22.5 47.5,47.5 v-342 q0,-13 6,-26.5 q6,-13.5 34,-13.5 v-70 h-80 Z M166,144 q6,0 10.5,4.5 q4.5,4.5 4.5,10.5 q0,6 -4.5,10.5 q-4.5,4.5 -10.5,4.5 q-6,0 -10.5,-4.5 q-4.5,-4.5 -4.5,-10.5 q0,-6 4.5,-10.5 q4.5,-4.5 10.5,-4.5 Z" fill="#1F2328" transform="matrix(1,0,0,-1,4489,412)"/>
  <path d="M16,427 l-8,13 l90,61 l11,-18 l-93,-56 Z" fill="#1F2328" transform="matrix(1,0,0,-1,4739,46)"/>
  <path d="M31,437 l-9,71 l19,11 l6,-49 l16,9 l-7,48 l19,11 l6,-48 l16,9 l-6,49 l18,11 l10,-70 l-88,-52 Z" fill="#1F2328" transform="matrix(1,0,0,-1,4739,143)"/>
  <path d="M-20,0 v80 h20 v305 q0,23 -0.5,57.5 q-0.5,34.5 -4,66.5 q-3.5,32 -12.5,48 q24,17 50.5,46.5 q26.5,29.5 46.5,59.5 v-553 q0,-13 6,-26.5 q6,-13.5 34,-13.5 v-70 h-140 Z" fill="#1F2328" transform="matrix(1,0,0,-1,4779,412)"/>
  <path d="M-20,0 v70 h20 v422 q0,22 -0.5,55.5 q-0.5,33.5 -3,66.5 q-2.5,33 -10.5,52 q23,18 49,46.5 q26,28.5 45,56.5 v-729 q0,-13 -5.5,-26.5 q-5.5,-13.5 -34.5,-13.5 h-60 Z" fill="#1F2328" transform="matrix(1,0,0,-1,4879,412)"/>
  <path d="M230,-6 q-48,0 -90.5,14.5 q-42.5,14.5 -75,47 q-32.5,32.5 -50,84.5 q-17.5,52 -14.5,127 q2,50 3.5,95.5 q1.5,45.5 2.5,85 q1,39.5 0.5,73 q-0.5,33.5 -2.5,60 q-2,26.5 -6.5,46 q-4.5,19.5 -11.5,31.5 q26,20 53,51 q27,31 46,61 q1,-157 -4.5,-277 q-5.5,-120 -7.5,-181 q-1,-58 21.5,-101.5 q22.5,-43.5 62,-71.5 q39.5,-28 91,-41 q51.5,-13 107.5,-11 q56,2 112,19.5 q56,17.5 104,50.5 q-48,-53 -105.5,-89.5 q-57.5,-36.5 -118,-55 q-60.5,-18.5 -117.5,-18.5 Z" fill="#1F2328" transform="matrix(1,0,0,-1,4979,412)"/>
  <path d="" fill="#1F2328" transform="matrix(1,0,0,-1,5570,412)"/>
  <path d="M16,-223 l-8,13 l90,61 l11,-18 l-93,-56 Z" fill="#1F2328" transform="matrix(1,0,0,-1,6171,342)"/>
  <path d="M446,-10 q-70,0 -103,10 h-343 q29,18 61,45 q32,27 52,52 q17,-10 50.5,-16 q33.5,-6 69.5,-8.5 q36,-2.5 59,-2.5 q0,64 22,114.5 q22,50.5 57,80 q35,29.5 75,29.5 q40,0 75,-29.5 q35,-29.5 57,-80 q22,-50.5 22,-114.5 h40 v-70 h-91 q-33,-10 -103,-10 Z M445,114 q6,0 10.5,4.5 q4.5,4.5 4.5,10.5 q0,6 -4.5,10.5 q-4.5,4.5 -10.5,4.5 q-6,0 -10.5,-4.5 q-4.5,-4.5 -4.5,-10.5 q0,-6 4.5,-10.5 q4.5,-4.5 10.5,-4.5 Z" fill="#1F2328" transform="matrix(1,0,0,-1,5770,412)"/>
  <path d="M50,461 q-19,0 -32,13 q-13,13 -13,32 q0,18 13,31 q13,13 32,13 q18,0 31,-13 q13,-13 13,-31 q0,-19 -13,-32 q-13,-13 -31,-13 Z M50,478 q11,0 19,8.5 q8,8.5 8,19.5 q0,11 -8,19 q-8,8 -19,8 q-11,0 -19.5,-8 q-8.5,-8 -8.5,-19 q0,-11 8.5,-19.5 q8.5,-8.5 19.5,-8.5 Z" fill="#1F2328" transform="matrix(1,0,0,-1,6466,542)"/>
  <path d="M-20,0 v70 h44 q-18,23 -34,61 q25,24 42.5,53 q17.5,29 25.5,48 q8,-19 16.5,-36.5 q8.5,-17.5 17.5,-34.5 q26,24 44,53.5 q18,29.5 26,49.5 q4,-16 9,-32.5 q5,-16.5 11,-29.5 q29,34 46.5,63 q17.5,29 25.5,48 v-203 q0,-13 6,-26.5 q6,-13.5 34,-13.5 v-70 h-314 Z" fill="#1F2328" transform="matrix(1,0,0,-1,6390,412)"/>
  <path d="M16,-223 l-8,13 l90,61 l11,-18 l-93,-56 Z" fill="#1F2328" transform="matrix(1,0,0,-1,6659,425)"/>
  <path d="M37.5,3.5 q-13.5,0 -23.75,10.25 q-10.25,10.25 -10.25,23.75 q0,14 10.25,24 q10.25,10 23.75,10 q14,0 24,-10 q10,-10 10,-24 q0,-13.5 -10,-23.75 q-10,-10.25 -24,-10.25 Z" fill="#1F2328" transform="matrix(1,0,0,-1,6666,529)"/>
  <path d="M-20,0 v70 h20 v110 q0,28 -0.5,56.5 q-0.5,28.5 -4,53 q-3.5,24.5 -14.5,37.5 q24,15 51.5,37.5 q27.5,22.5 47.5,47.5 v-372 q0,-13 -5.5,-26.5 q-5.5,-13.5 -34.5,-13.5 h-60 Z" fill="#1F2328" transform="matrix(1,0,0,-1,6664,412)"/>
<style>
@media (prefers-color-scheme: dark) {
path[fill="#1F2328"] {
 fill: #D1D7E0;
 }
}
</style></svg>
